<?xml version="1.0" standalone="yes"?>
<svg xmlns="http://www.w3.org/2000/svg" width="352" height="352">
<path style="fill:#110629; stroke:none;" d="M0 0L0 352L352 352L352 0L0 0z"/>
<path style="fill:#746626; stroke:none;" d="M85 106L85 107L176 107L148 106L85 106z"/>
<path style="fill:#f4c707; stroke:none;" d="M98 118L141 108C130.02 103.393 110.944 107 99 107C94.4316 107 88.2005 105.928 84 108.028C75.3871 112.334 67.7702 123.23 61 130C56.4342 134.566 37.7981 148.086 42.3765 155C49.9585 166.449 63.2867 176.287 73 186C75.8034 188.803 80.6262 195.793 85 195.793C92.3193 195.793 104.997 178.003 110 173C114.349 168.651 128.793 158.471 128.793 152C128.793 148.188 123.424 144.425 121 142C113.172 134.168 105 126.596 98 118z"/>
<path style="fill:#a0e036; stroke:none;" d="M98 118C108.432 136.047 129.28 151.304 144 166C148.767 170.759 156.345 180.483 163 182.223C168.532 183.67 177.563 179.486 183 178.127C199.485 174.005 217.104 170.997 233 165C222.288 149.792 206.179 136.179 193 123C188.192 118.192 182.516 110.006 176 107.603C170.85 105.705 163.431 107 158 107C137.075 107 118.332 113.803 98 118z"/>
<path style="fill:#2bc248; stroke:none;" d="M266 107L221 152L221 153L233 165L162 183L176 197L176 198C163.795 206.597 153.553 219.447 143 230C140.015 232.985 132.207 238.366 132.207 243C132.207 250.319 149.997 262.997 155 268C159.349 272.349 169.529 286.793 176 286.793C180.101 286.793 184.383 280.617 187 278L212 253C214.521 250.478 220.693 246.167 219.654 242C218.458 237.202 211.373 232.373 208 229L177 198L240 198L267 196.972L282 183L312 153L312 152L266 107z"/>
<path style="fill:#746626; stroke:none;" d="M267 107L268 108L267 107M268 108L269 109L268 108M269 109L270 110L269 109M270 110L271 111L270 110M271 111L272 112L271 111M272 112L273 113L272 112M273 113L274 114L273 113M274 114L275 115L274 114M275 115L276 116L275 115M276 116L277 117L276 116M277 117L278 118L277 117M278 118L279 119L278 118M279 119L280 120L279 119M280 120L281 121L280 120M281 121L282 122L281 121M282 122L283 123L282 122M283 123L284 124L283 123M284 124L285 125L284 124M285 125L286 126L285 125M286 126L287 127L286 126M287 127L288 128L287 127M288 128L289 129L288 128M289 129L290 130L289 129M290 130L291 131L290 130M291 131L292 132L291 131M292 132L293 133L292 132M293 133L294 134L293 133M294 134L295 135L294 134M295 135L296 136L295 135M296 136L297 137L296 136M297 137L298 138L297 137M298 138L299 139L298 138M299 139L300 140L299 139z"/>
<path style="fill:#2bc248; stroke:none;" d="M209 140L210 141L209 140z"/>
<path style="fill:#746626; stroke:none;" d="M300 140L301 141L300 140z"/>
<path style="fill:#2bc248; stroke:none;" d="M210 141L211 142L210 141z"/>
<path style="fill:#746626; stroke:none;" d="M301 141L302 142L301 141z"/>
<path style="fill:#2bc248; stroke:none;" d="M211 142L212 143L211 142z"/>
<path style="fill:#746626; stroke:none;" d="M302 142L303 143L302 142z"/>
<path style="fill:#2bc248; stroke:none;" d="M212 143L213 144L212 143z"/>
<path style="fill:#746626; stroke:none;" d="M303 143L304 144L303 143z"/>
<path style="fill:#2bc248; stroke:none;" d="M213 144L214 145L213 144z"/>
<path style="fill:#746626; stroke:none;" d="M304 144L305 145L304 144z"/>
<path style="fill:#2bc248; stroke:none;" d="M214 145L215 146L214 145z"/>
<path style="fill:#746626; stroke:none;" d="M305 145L306 146L305 145z"/>
<path style="fill:#2bc248; stroke:none;" d="M215 146L216 147L215 146z"/>
<path style="fill:#746626; stroke:none;" d="M306 146L307 147L306 146z"/>
<path style="fill:#2bc248; stroke:none;" d="M216 147L217 148L216 147z"/>
<path style="fill:#746626; stroke:none;" d="M307 147L308 148L307 147z"/>
<path style="fill:#2bc248; stroke:none;" d="M217 148L218 149L217 148z"/>
<path style="fill:#746626; stroke:none;" d="M308 148L309 149L308 148z"/>
<path style="fill:#2bc248; stroke:none;" d="M218 149L219 150L218 149z"/>
<path style="fill:#746626; stroke:none;" d="M309 149L310 150L309 149z"/>
<path style="fill:#2bc248; stroke:none;" d="M219 150L220 151L219 150z"/>
<path style="fill:#746626; stroke:none;" d="M310 150L311 151L310 150z"/>
<path style="fill:#2bc248; stroke:none;" d="M220 151L221 152L220 151z"/>
<path style="fill:#746626; stroke:none;" d="M311 151L312 152L311 151M130 152L131 153L130 152M129 153L130 154L129 153M128 154L129 155L128 154M127 155L128 156L127 155M126 156L127 157L126 156M125 157L126 158L125 157M124 158L125 159L124 158M123 159L124 160L123 159M122 160L123 161L122 160M121 161L122 162L121 161M120 162L121 163L120 162M119 163L120 164L119 163M118 164L119 165L118 164M117 165L118 166L117 165M116 166L117 167L116 166M115 167L116 168L115 167M114 168L115 169L114 168M113 169L114 170L113 169M112 170L113 171L112 170M111 171L112 172L111 171M110 172L111 173L110 172M109 173L110 174L109 173M108 174L109 175L108 174z"/>
<path style="fill:#2bc248; stroke:none;" d="M153 174L154 175L153 174z"/>
<path style="fill:#746626; stroke:none;" d="M107 175L108 176L107 175z"/>
<path style="fill:#2bc248; stroke:none;" d="M154 175L155 176L154 175z"/>
<path style="fill:#746626; stroke:none;" d="M106 176L107 177L106 176z"/>
<path style="fill:#2bc248; stroke:none;" d="M155 176L156 177L155 176z"/>
<path style="fill:#746626; stroke:none;" d="M105 177L106 178L105 177z"/>
<path style="fill:#2bc248; stroke:none;" d="M156 177L157 178L156 177z"/>
<path style="fill:#746626; stroke:none;" d="M104 178L105 179L104 178z"/>
<path style="fill:#2bc248; stroke:none;" d="M157 178L158 179L157 178z"/>
<path style="fill:#746626; stroke:none;" d="M103 179L104 180L103 179z"/>
<path style="fill:#2bc248; stroke:none;" d="M158 179L159 180L158 179z"/>
<path style="fill:#746626; stroke:none;" d="M102 180L103 181L102 180z"/>
<path style="fill:#2bc248; stroke:none;" d="M159 180L160 181L159 180z"/>
<path style="fill:#746626; stroke:none;" d="M101 181L102 182L101 181z"/>
<path style="fill:#2bc248; stroke:none;" d="M160 181L161 182L160 181z"/>
<path style="fill:#746626; stroke:none;" d="M100 182L101 183L100 182z"/>
<path style="fill:#2bc248; stroke:none;" d="M161 182L162 183L161 182z"/>
<path style="fill:#746626; stroke:none;" d="M99 183L100 184L99 183M98 184L99 185L98 184M97 185L98 186L97 185M96 186L97 187L96 186M95 187L96 188L95 187M94 188L95 189L94 188M93 189L94 190L93 189M92 190L93 191L92 190M91 191L92 192L91 191M90 192L91 193L90 192M89 193L90 194L89 193M88 194L89 195L88 194M87 195L88 196L87 195M86 196L87 197L86 196M85 197L86 198L85 197z"/>
</svg>
