<svg width="32" height="32" viewBox="0 0 32 32" fill="none" xmlns="http://www.w3.org/2000/svg">
<path d="M16 32C24.8366 32 32 24.8366 32 16C32 7.16344 24.8366 0 16 0C7.16344 0 0 7.16344 0 16C0 24.8366 7.16344 32 16 32Z" fill="#0B0B0B"/>
<path d="M16.0003 24.4042C17.8463 24.4042 19.6508 23.8841 21.1856 22.9096C22.7205 21.9351 23.9168 20.55 24.6232 18.9295C25.3296 17.3089 25.5144 15.5258 25.1543 13.8054C24.7942 12.0851 23.9053 10.5048 22.6 9.26455C21.2947 8.02425 19.6317 7.1796 17.8212 6.8374C16.0107 6.4952 14.1341 6.67083 12.4286 7.34207C10.7232 8.01332 9.2655 9.15003 8.23994 10.6085C7.21438 12.0669 6.66699 13.7816 6.66699 15.5356L10.6268 15.5356C10.6268 14.4853 10.7394 13.4586 11.3535 12.5853C11.9676 11.712 12.8404 11.0314 13.8616 10.6294C14.8828 10.2275 16.0065 10.1223 17.0906 10.3272C18.1747 10.5322 19.1705 11.0379 19.9521 11.7806C20.7337 12.5233 21.266 13.4695 21.4816 14.4996C21.6972 15.5297 21.5866 16.5974 21.1636 17.5678C20.7406 18.5381 20.0243 19.3675 19.1052 19.951C18.1862 20.5345 17.1057 20.846 16.0003 20.846V24.4042Z" fill="#39FF88"/>
</svg>
