<svg width="86" height="22" viewBox="0 0 86 22" fill="none" xmlns="http://www.w3.org/2000/svg">
<g id="logo" clip-path="url(#clip0_310_3679)">
<path id="Subtract" d="M29.5848 11.6996C29.5848 17.1116 25.1975 21.4988 19.7855 21.4988V17.5475C23.0153 17.5475 25.6335 14.9293 25.6335 11.6996C25.6335 8.46989 23.0153 5.85169 19.7855 5.85169C16.5558 5.85169 13.9376 8.46989 13.9376 11.6996H9.98633C9.98633 6.28765 14.3736 1.90039 19.7855 1.90039C25.1975 1.90039 29.5848 6.28765 29.5848 11.6996Z" fill="#39FF88"/>
<g id="Union">
<path d="M43.6396 5.84753C43.6396 5.84753 43.2852 5.86098 43.0989 5.85155L42.5456 5.84753C41.2237 5.88122 40.192 6.29122 39.4506 7.07752C38.6526 7.89902 38.2536 9.14301 38.2536 10.8095V21.0196H33.8527V10.2462C33.8527 8.34498 34.193 6.79586 34.8737 5.59881C35.5544 4.3783 36.4932 3.47464 37.6903 2.88786C38.8638 2.30107 40.2017 2.00768 41.7039 2.00768L43.0989 2.00772C43.0882 2.00641 43.4918 2.00683 43.9041 2.00725C44.1115 2.00746 44.3211 2.00768 44.4814 2.00768C45.9835 2.00768 47.3214 2.30107 48.495 2.88786C49.692 3.47464 50.6309 4.3783 51.3116 5.59881C51.9922 6.79586 52.3326 8.34498 52.3326 10.2462V21.0196H47.9317V10.8095C47.9317 9.14301 47.5326 7.89902 46.7346 7.07752C45.9932 6.29122 44.9616 5.88122 43.6396 5.84753Z" fill="#F0F0F0"/>
<path d="M71.5949 20.0357C73.144 20.8572 74.9044 21.2679 76.876 21.2679C78.7067 21.2679 80.3145 20.8924 81.6993 20.1413C83.1076 19.3667 84.1756 18.2753 84.9032 16.867L81.5233 14.8954C80.96 15.7873 80.2676 16.4445 79.4461 16.867C78.6481 17.2895 77.7796 17.5007 76.8408 17.5007C75.7611 17.5007 74.787 17.266 73.9186 16.7966C73.0501 16.3272 72.3694 15.6582 71.8765 14.7898C71.3836 13.8979 71.1372 12.8417 71.1372 11.6211C71.1372 10.4006 71.3836 9.35614 71.8765 8.4877C72.3694 7.59578 73.0501 6.91511 73.9186 6.44568C74.787 5.97625 75.7611 5.74153 76.8408 5.74153C77.7796 5.74153 78.6481 5.95278 79.4461 6.37526C80.2676 6.79775 80.96 7.45495 81.5233 8.34687L84.9032 6.37526C84.1756 4.9435 83.1076 3.86382 81.6993 3.1362C80.3145 2.38511 78.7067 2.00957 76.876 2.00957C74.9044 2.00957 73.144 2.42032 71.5949 3.24182C70.0692 4.06332 68.8722 5.20169 68.0037 6.65692C67.1353 8.08868 66.7011 9.74342 66.7011 11.6211C66.7011 13.4754 67.1353 15.1301 68.0037 16.5854C68.8722 18.0406 70.0692 19.1907 71.5949 20.0357Z" fill="#F0F0F0"/>
<path d="M1.10205 21.0215V2.22081H5.50295V21.0215H1.10205Z" fill="#F0F0F0"/>
<path d="M58.0731 21.0215V2.22081H62.474V21.0215H58.0731Z" fill="#F0F0F0"/>
</g>
</g>
<defs>
<clipPath id="clip0_310_3679">
<rect width="85.4" height="21" fill="white" transform="translate(0 0.5)"/>
</clipPath>
</defs>
</svg>
