<svg width="176" height="181" viewBox="0 0 176 181" fill="none" xmlns="http://www.w3.org/2000/svg">
<g filter="url(#filter0_d_2674_39295)">
<path d="M64.5163 53.308C71.3903 49.5079 79.2844 47.3466 87.6798 47.3466C96.7011 47.3466 105.144 49.8422 112.364 54.185C112.139 41.0656 101.507 30.5 88.4246 30.5C75.6347 30.5 65.1871 40.598 64.5163 53.308Z" fill="#73F36C"/>
<path d="M135.409 102.692C135.72 100.466 135.88 98.1923 135.88 95.8807C135.88 81.0995 129.318 67.8616 118.967 58.9597C119.319 58.7159 119.691 58.5014 120.082 58.3181C126.801 55.1722 136.77 62.417 142.351 74.4997C147.931 86.5824 147.008 98.9275 140.29 102.073C138.796 102.773 137.141 102.959 135.409 102.692Z" fill="#73F36C"/>
<path d="M102.85 141.962C116.979 137.248 128.21 126.13 133.15 112.024C134.934 117.507 134.086 125.603 130.4 133.584C124.819 145.666 114.849 152.911 108.131 149.765C105.39 148.482 103.614 145.666 102.85 141.962Z" fill="#73F36C"/>
<path d="M42.5623 112.997C47.7431 126.836 59.0239 137.664 73.1038 142.156C72.3166 145.754 70.5564 148.485 67.8685 149.744C61.1502 152.89 51.1802 145.645 45.6 133.562C42.131 126.051 41.1751 118.438 42.5623 112.997Z" fill="#73F36C"/>
<path d="M56.6552 58.7355C46.1527 67.6385 39.4793 80.9749 39.4793 95.8807C39.4793 98.2265 39.6446 100.533 39.9641 102.79C38.4599 102.928 37.0228 102.71 35.7099 102.095C28.9916 98.9491 28.0691 86.6039 33.6493 74.5212C39.2296 62.4385 49.1995 55.1938 55.9178 58.3396C56.1719 58.4586 56.4177 58.5908 56.6552 58.7355Z" fill="#73F36C"/>
<path d="M77.5254 116.327C78.4955 114.983 80.0459 114.188 81.6959 114.188L94.4622 114.188C96.1121 114.188 97.6623 114.983 98.6324 116.327L106.595 127.357C108.326 129.755 107.728 133.16 105.108 134.511C95.1066 139.667 84.5143 140.332 71.559 134.411C68.7472 133.125 67.9793 129.552 69.7948 127.037L77.5254 116.327Z" fill="#73F36C"/>
<path d="M104.333 111.806C103.355 110.458 103.081 108.718 103.596 107.132L107.595 94.8046C108.107 93.225 109.34 91.9878 110.91 91.4768L123.865 87.2615C126.732 86.3287 129.809 88.0627 130.103 91.0818C130.236 92.4474 130.304 93.8319 130.304 95.2324C130.304 103.137 130.304 106.63 124.636 116.44C123.191 118.94 121.497 121.277 119.588 123.419C117.581 125.672 114.089 125.253 112.315 122.808L104.333 111.806Z" fill="#73F36C"/>
<path d="M121.727 80.927C124.589 79.9854 126.065 76.7657 124.55 74.1466C123.491 72.3169 122.301 70.5738 120.994 68.9309C120.794 68.6796 120.618 68.4112 120.445 68.1408C117.908 64.1916 108.548 57.4209 104.234 56.1503C103.966 56.0714 103.698 55.9902 103.438 55.8873C101.402 55.0818 99.2898 54.4317 97.1147 53.9511C94.1692 53.3003 91.5795 55.7164 91.5793 58.7529L91.5784 72.5245C91.5783 74.1816 92.3639 75.7391 93.6927 76.7166L104.179 84.4305C105.518 85.4154 107.246 85.6918 108.822 85.1732L121.727 80.927Z" fill="#73F36C"/>
<path d="M56.569 123.419C54.6607 121.277 52.966 118.94 51.5211 116.439C47.5206 109.931 45.8532 102.724 45.8532 95.2317C45.8532 93.8313 45.9215 92.4469 46.0545 91.0815C46.3487 88.0625 49.4252 86.3286 52.2919 87.2613L65.2472 91.4765C66.8177 91.9875 68.0503 93.2247 68.5627 94.8045L72.5615 107.132C73.0762 108.719 72.8017 110.458 71.8239 111.806L63.8425 122.808C62.069 125.253 58.5767 125.672 56.569 123.419Z" fill="#73F36C"/>
<path d="M67.3363 85.1732C68.9124 85.6918 70.64 85.4154 71.9789 84.4306L82.4651 76.7172C83.794 75.7397 84.5796 74.182 84.5794 72.5249L84.5783 58.7539C84.5781 55.717 81.9892 53.3237 79.0537 54.0204C76.7569 54.5656 74.5232 55.2813 72.3301 56.0438C65.2113 58.5194 58.7178 64.5629 55.467 68.5554C54.0399 70.3073 52.7485 72.1766 51.6082 74.1465C50.0923 76.7654 51.5691 79.9851 54.4307 80.9267L67.3363 85.1732Z" fill="#73F36C"/>
<path d="M83.6231 107.14C81.3816 107.14 79.3969 105.682 78.7132 103.532L75.91 94.7192C75.2352 92.5974 75.9801 90.2786 77.7613 88.9569L85.0195 83.5707C86.8383 82.2209 89.318 82.221 91.1368 83.5707L98.3951 88.9569C100.176 90.2786 100.921 92.5974 100.246 94.7192L97.4432 103.532C96.7595 105.682 94.7748 107.14 92.5333 107.14H83.6231Z" fill="#73F36C"/>
<circle cx="87.5" cy="95.5" r="44.5" fill="#141514"/>
<path d="M101.631 94.9233C98.5178 92.6563 97.4445 88.5648 99.0128 85.0786C102.599 77.1071 104.032 71.1414 102.267 70.1447C100.502 69.148 95.9958 73.3773 90.8172 80.451C88.5527 83.5446 84.4238 84.6993 80.8632 83.1987C71.8199 79.3875 64.6989 78.1951 63.2604 80.6657C61.2852 84.0563 70.76 93.0589 84.4238 100.772C84.93 101.058 85.4351 101.336 85.9379 101.611C85.9662 101.628 85.9842 101.638 85.9842 101.638C85.9842 101.638 82.6599 100.216 79.132 100.581C78.8552 100.61 78.6145 100.788 78.4948 101.035C73.9376 110.423 71.9161 117.741 73.889 118.855C75.9149 119.999 81.549 114.262 87.6656 105.243C88.4362 104.107 89.9425 103.699 91.1911 104.294C102.05 109.468 111.097 111.42 112.74 108.6C114.179 106.129 109.537 100.681 101.629 94.9222L101.631 94.9233Z" fill="white"/>
</g>
<defs>
<filter id="filter0_d_2674_39295" x="-26" y="-21" width="228" height="223" filterUnits="userSpaceOnUse" color-interpolation-filters="sRGB">
<feFlood flood-opacity="0" result="BackgroundImageFix"/>
<feColorMatrix in="SourceAlpha" type="matrix" values="0 0 0 0 0 0 0 0 0 0 0 0 0 0 0 0 0 0 127 0" result="hardAlpha"/>
<feOffset/>
<feGaussianBlur stdDeviation="15"/>
<feComposite in2="hardAlpha" operator="out"/>
<feColorMatrix type="matrix" values="0 0 0 0 0 0 0 0 0 0 0 0 0 0 0 0 0 0 0.4 0"/>
<feBlend mode="normal" in2="BackgroundImageFix" result="effect1_dropShadow_2674_39295"/>
<feBlend mode="normal" in="SourceGraphic" in2="effect1_dropShadow_2674_39295" result="shape"/>
</filter>
</defs>
</svg>
