<?xml version="1.0" encoding="UTF-8"?>
<!DOCTYPE svg  PUBLIC '-//W3C//DTD SVG 1.1//EN'  'http://www.w3.org/Graphics/SVG/1.1/DTD/svg11.dtd'>
<svg clip-rule="evenodd" fill-rule="evenodd" stroke-linejoin="round" stroke-miterlimit="2" version="1.1" viewBox="0 0 142 142" xmlns="http://www.w3.org/2000/svg"><g fill-rule="nonzero"><path d="m21.6 80.7c-2.97 9.13 3.59 12.6 8.39 12.6h0.09c4.81 0 11.4-3.43 8.39-12.6-2.97-9.15-8.44-22.2-8.44-22.2s-5.46 13-8.43 22.2z" fill="url(#_Linear1)"/><path d="m21.6 80.7c-2.97 9.13 3.59 12.6 8.39 12.6h0.09c4.81 0 11.4-3.43 8.39-12.6-2.97-9.15-8.44-22.2-8.44-22.2s-5.46 13-8.43 22.2z" fill="url(#_Linear2)"/></g><path d="m30.1 103c0 2.32 0.46 4.59 1.38 6.81s2.17 4.18 3.77 5.87c1.59 1.69 3.45 3.04 5.58 4.06 2.12 1.01 4.35 1.52 6.66 1.52h-34.9c2.32 0 4.54-0.51 6.66-1.52s3.98-2.37 5.58-4.06c1.59-1.69 2.87-3.64 3.84-5.87 0.96-2.22 1.44-4.49 1.44-6.81zm46.1-28.8c1.83 0 3.09-0.92 3.77-2.75l-1.45 4.2-15.9 45.6-25.2-72.9c-0.68-1.74-1.93-2.61-3.77-2.61-1.06 0-1.98 0.39-2.75 1.16s-1.16 1.69-1.16 2.75v-20.3c0-2.41-0.92-4.61-2.75-6.59-1.84-1.98-3.96-2.97-6.37-2.97h33.9l15.5 44.5 2.46 7.1c0.19 0.77 0.65 1.43 1.38 1.96 0.72 0.52 1.51 0.79 2.38 0.79zm53-54.3c-2.41 0-4.47 0.99-6.16 2.97s-2.53 4.18-2.53 6.59v82.3c0 2.41 0.84 4.61 2.53 6.59s3.74 2.97 6.16 2.97h-43c2.51 0 4.61-0.99 6.3-2.97s2.53-4.18 2.53-6.59v-62.7c0-1.06-0.41-2-1.23-2.82s-1.76-1.23-2.82-1.23c-1.84 0-3.09 0.92-3.77 2.75l2.46-7.24 6.95-20.6h32.6z" fill="#282828" fill-rule="nonzero"/><defs><linearGradient id="_Linear1" x2="1" gradientTransform="matrix(-.511 -35.8 35.8 -.511 30.2 96.5)" gradientUnits="userSpaceOnUse"><stop stop-color="#eac687" offset="0"/><stop stop-color="#eac687" stop-opacity="0" offset="1"/></linearGradient><linearGradient id="_Linear2" x2="1" gradientTransform="matrix(2.12e-15 -34.7 34.7 2.12e-15 30 93.3)" gradientUnits="userSpaceOnUse"><stop stop-color="#eac687" offset="0"/><stop stop-color="#c2b487" offset="0"/><stop stop-color="#c2b487" stop-opacity=".69" offset=".18"/><stop stop-color="#c2b487" stop-opacity=".6" offset=".3"/><stop stop-color="#c2b487" stop-opacity=".1" offset="1"/></linearGradient></defs></svg>
