<!-- Generator: Adobe Illustrator 26.3.1, SVG Export Plug-In . SVG Version: 6.00 Build 0)  -->
<svg enable-background="new 0 0 153 175.25" version="1.1" viewBox="0 0 153 175.2" xml:space="preserve" xmlns="http://www.w3.org/2000/svg">
<style type="text/css">
	.st0{fill:#BCAC83;}
</style>

	<path class="st0" d="m76.38 175.5c-4.16-1.09-5.49-2.83-5.49-7.21v-67.9c0-1.97 0-1.97-1.99-1.97-3.29 0-6.57 0.06-9.86-0.03-1.29-0.03-1.61 0.4-1.6 1.64 0.04 14.56 0.03 29.12 0.02 43.69 0 3.51-2.45 5.95-5.87 5.89-2.95-0.05-5.35-2.49-5.44-5.57-0.05-1.66-0.01-3.33-0.01-4.99v-45.43c0-4.33 2.2-6.53 6.53-6.53h48.05c4.14 0 6.41 2.26 6.41 6.4v50.3c0 2.44-1.1 4.26-3.29 5.3-2.1 1-4.15 0.72-5.96-0.75-1.49-1.2-2.08-2.83-2.07-4.73 0.01-14.31 0.01-28.63 0.01-42.94 0-0.37-0.02-0.75 0-1.12 0.06-0.79-0.26-1.12-1.08-1.12-3.74 0.02-7.49 0.02-11.23 0-0.8 0-1.16 0.3-1.12 1.1 0.02 0.41 0 0.83 0 1.25 0 22.59-0.01 45.18 0.01 67.78 0 2.84-0.8 5.18-3.59 6.41-0.6 0.26-1.27 0.37-1.91 0.55-0.19-0.02-0.36-0.02-0.52-0.02z"/>
	<path class="st0" d="m0.25 57.42c0.77-3.16 2-6.08 4.3-8.46 3.17-3.27 7.07-5.01 11.59-5.02 40.31-0.04 80.61-0.04 120.9-0.01 8.22 0.01 15.27 6.42 15.97 14.33 0.75 8.56-4.76 16.02-13.1 17.54-5.26 0.96-9.89-0.51-13.8-4.13-2.42-2.24-2.58-5.5-0.5-7.94 1.93-2.26 5.39-2.56 7.88-0.59 1.15 0.91 2.3 1.58 3.83 1.51 2.25-0.11 4.13-1.81 4.37-4.04 0.25-2.42-1.18-4.58-3.44-5.09-0.76-0.17-1.56-0.25-2.35-0.25-39.52-0.01-79.03-0.01-118.6-0.01-1.05 0-2.08 0.08-3.05 0.52-1.75 0.79-2.73 2.16-2.79 4.09-0.06 1.92 0.74 3.41 2.48 4.27 1.69 0.84 3.42 0.78 4.94-0.4 1.34-1.04 2.68-1.95 4.48-1.9 2.28 0.07 4.43 1.41 5.19 3.47 0.83 2.25 0.52 4.33-1.21 6.11-5.58 5.76-15.09 6.2-21.36 1.03-3.12-2.58-4.89-5.92-5.81-9.79 0.01-1.75 0.01-3.49 0.01-5.24z"/>
	<path class="st0" d="m76.75 65.82c11.27 0 22.54-0.01 33.81 0 2.75 0 4.81 1.38 5.62 3.71 1.27 3.62-1.16 7.28-5.05 7.61-0.33 0.03-0.66 0.02-1 0.02-22.33 0-44.66 0-66.99 0.01-2.02 0-3.81-0.5-5.1-2.12-1.44-1.81-1.77-3.83-0.76-5.96 1.03-2.16 2.76-3.27 5.16-3.27 9.61-0.01 19.21-0.01 28.82-0.01 1.83 0.01 3.66 0.01 5.49 0.01z"/>
	<path class="st0" d="m3.68 16.8c0-4.12-0.01-8.23 0-12.35 0.01-2.75 1.1-3.93 3.84-3.95 8.15-0.04 16.3-0.04 24.45 0 2.69 0.01 3.96 1.24 3.97 3.91 0.06 8.28 0.04 16.55 0 24.83-0.01 1.91-0.99 3.11-2.5 3.43-1.68 0.36-3.22-0.62-3.53-2.33-0.15-0.81-0.2-1.65-0.2-2.48-0.01-6.56 0-13.13-0.01-19.7 0-1.59-0.04-1.62-1.59-1.63-1.37 0-2.75 0.07-4.11-0.01-1.15-0.07-1.51 0.32-1.5 1.48 0.05 7.11 0.03 14.22 0.03 21.33 0 1.9-0.76 2.94-2.38 3.3-1.6 0.36-3.13-0.58-3.5-2.2-0.12-0.52-0.15-1.07-0.15-1.61-0.02-6.9-0.02-13.81-0.03-20.71 0-1.57-0.03-1.59-1.62-1.59-1.37 0-2.74 0.03-4.12 0-0.75-0.01-1.16 0.2-1.15 1.05 0.04 7.23 0.03 14.47 0.1 21.7 0.02 1.94-1.13 3.39-2.96 3.44-1.79 0.05-3.02-1.25-3.02-3.2-0.02-4.22-0.02-8.47-0.02-12.71z"/>
	<path class="st0" d="m108 32.98h-12.09c-0.76 0-1.5-0.07-2.2-0.36-1.43-0.6-2.12-1.96-1.71-3.45 0.16-0.56 0.39-1.1 0.65-1.61 4.21-8.35 8.44-16.69 12.64-25.04 0.63-1.24 1.45-2.12 2.95-2.09 1.45 0.02 2.23 0.89 2.82 2.09 4.2 8.45 8.43 16.88 12.63 25.33 1.46 2.93 0.2 5.05-3.1 5.11-4.2 0.07-8.39 0.02-12.59 0.02zm0.05-6.33c2.41 0 4.82-0.01 7.24 0.01 0.69 0 0.93-0.17 0.58-0.87-2.41-4.79-4.8-9.59-7.2-14.39-0.12-0.25-0.19-0.62-0.53-0.63-0.35-0.01-0.41 0.37-0.53 0.62-2.4 4.7-4.78 9.42-7.2 14.11-0.53 1.03-0.17 1.18 0.79 1.17 2.28-0.05 4.57-0.02 6.85-0.02z"/>
	<path class="st0" d="m63.12 16.59v-12.6c0-1.37 0.35-2.56 1.68-3.23 1.06-0.53 2.09-0.4 3.07 0.25 6.54 4.36 13.09 8.7 19.61 13.08 2.14 1.44 2.04 3.75-0.23 5.3-4.02 2.74-8.08 5.42-12.13 8.12-2.32 1.55-4.61 3.12-6.96 4.62-2.62 1.67-4.97 0.42-5.02-2.7-0.06-4.28-0.02-8.56-0.02-12.84zm6.33-7.29c0 4.84-0.01 9.35 0.01 13.86 0 0.8 0.47 0.48 0.82 0.24 3.11-2.06 6.22-4.14 9.33-6.2 0.52-0.35 0.74-0.65 0.07-1.09-3.32-2.18-6.62-4.4-10.23-6.81z"/>
	<path class="st0" d="m145.4 0.95c1.26-0.01 2.15 0.59 2.69 1.69 0.53 1.08 0.28 2.45-0.6 3.34-0.86 0.88-2.01 1.32-3.04 1.94-1.64 0.98-3.3 1.93-4.99 2.84-0.78 0.42-0.96 0.72-0.22 1.43 3.08 2.97 6.13 5.98 9.16 9.02 1.85 1.86 1.63 3.95-0.64 5.28-3.77 2.21-7.58 4.33-11.41 6.43-1.78 0.98-3.39 0.53-4.31-1.04-0.89-1.52-0.4-3.14 1.38-4.2 2.32-1.38 4.68-2.7 7.05-4 0.88-0.48 1.03-0.86 0.24-1.63-2.98-2.9-5.91-5.85-8.84-8.8-2.18-2.19-1.91-4.06 0.78-5.59 3.54-2.02 7.09-4.03 10.63-6.05 0.67-0.37 1.35-0.64 2.12-0.66z"/>
	<path class="st0" d="m46.78 16.73v-12.85c0-1.85 1.08-3.09 2.79-3.2 1.87-0.12 3.08 0.89 3.33 2.78 0.04 0.29 0.03 0.58 0.03 0.87 0 8.11 0 16.22-0.01 24.33 0 0.5-0.01 1-0.11 1.49-0.34 1.64-1.67 2.68-3.2 2.55-1.68-0.14-2.75-1.3-2.76-3.11-0.02-4.28-0.01-8.57-0.01-12.85-0.02-0.01-0.04-0.01-0.06-0.01z"/>

</svg>
