<?xml version="1.0" encoding="utf-8"?>
<!-- Generator: Adobe Illustrator 26.3.1, SVG Export Plug-In . SVG Version: 6.00 Build 0)  -->
<svg version="1.1" id="Layer_1" xmlns="http://www.w3.org/2000/svg" xmlns:xlink="http://www.w3.org/1999/xlink" x="0px" y="0px"
	 viewBox="0 0 292.25 251" style="enable-background:new 0 0 292.25 251;" xml:space="preserve">
<style type="text/css">
	.st0{fill:#BCAC83;}
</style>
<g>
	<path class="st0" d="M266.02,0.25c3.55,0.71,7.06,1.56,10.28,3.32c8.51,4.63,13.89,11.63,15.87,21.13
		c0.47,2.24-0.02,4.58,0.16,6.85c1.13,13.71-11.58,27.96-26.32,29.49c-9.67,1-18.02-1.76-25.02-8.47
		c-4.33-4.15-4.44-10.6-0.39-14.91c4.1-4.35,10.72-4.62,15.17-0.61c3.57,3.22,8.09,3.6,11.78,0.99c2.98-2.11,4.39-6.02,3.46-9.63
		c-0.93-3.6-3.92-6.24-7.58-6.65c-0.95-0.11-1.91-0.19-2.86-0.19c-75.81-0.01-151.62-0.01-227.43-0.01c-2.58,0-5.06,0.3-7.25,1.85
		c-3.15,2.22-4.53,6.22-3.39,9.94c1.16,3.77,4.47,6.25,8.35,6.36c2.61,0.07,4.79-0.82,6.69-2.56c4.47-4.11,11.24-3.83,15.36,0.6
		c4.02,4.32,3.74,10.81-0.64,15.04c-14.68,14.17-39.16,9.98-48.3-8.26C-2,32.59,0.17,18.54,9.55,9.12C14.37,4.28,20.21,1.36,27,0.43
		c0.24-0.03,0.48-0.12,0.72-0.18C107.16,0.25,186.59,0.25,266.02,0.25z"/>
	<path class="st0" d="M136.05,173.3c0-22.48,0-44.95,0-67.43c0-1.9,0-1.9-1.91-1.9c-7.49,0-14.99,0-22.48,0
		c-1.69,0-1.69,0-1.69,1.74c0,28.39,0,56.77,0,85.16c0,6.48-4.87,11.2-11.31,10.98c-5.29-0.18-9.92-4.8-10.04-10.09
		c-0.06-2.79-0.03-5.58-0.03-8.37c0-29.84,0.02-59.69-0.02-89.53c-0.01-4.29,1.65-7.56,5.26-9.85c1.66-1.05,3.5-1.45,5.47-1.45
		c13.11,0.02,26.23,0.01,39.34,0.01c18.36,0,36.72,0.11,55.07-0.06c5.89-0.06,11.24,4.68,11.22,11.28
		c-0.09,32.38-0.04,64.76-0.05,97.15c0,6.34-4.94,11.11-11.28,10.91c-5.14-0.16-9.68-4.54-10.09-9.68
		c-0.13-1.58-0.16-3.16-0.16-4.74c0-27.14,0-54.27,0-81.41c0-2.05,0-2.05-2.03-2.05c-7.37,0-14.74,0-22.1,0
		c-1.78,0-1.78,0-1.78,1.77c0,44.79,0,89.57,0,134.36c0,5.49-3.4,9.68-8.72,10.79c-6.28,1.31-12.58-3.61-12.63-10.04
		c-0.08-10.49-0.03-20.98-0.03-31.47C136.04,197.35,136.05,185.32,136.05,173.3z"/>
	<path class="st0" d="M146.75,41.87c21.73,0,43.46-0.01,65.18,0c5.28,0,9.46,3.27,10.65,8.26c1.59,6.68-3.47,13.12-10.35,13.12
		c-36,0.01-72.01,0-108.01,0c-7.62,0-15.23,0-22.85,0c-5.53,0-10.25-4.13-10.73-9.35c-0.54-5.88,3.04-10.79,8.69-11.88
		c0.89-0.17,1.82-0.15,2.74-0.15C103.63,41.87,125.19,41.87,146.75,41.87z"/>
</g>
</svg>
