<?xml version="1.0" encoding="UTF-8" standalone="no"?>
<!DOCTYPE svg PUBLIC "-//W3C//DTD SVG 1.1//EN" "http://www.w3.org/Graphics/SVG/1.1/DTD/svg11.dtd">
<svg width="100%" height="100%" viewBox="0 0 293 251" version="1.1" xmlns="http://www.w3.org/2000/svg" xmlns:xlink="http://www.w3.org/1999/xlink" xml:space="preserve" xmlns:serif="http://www.serif.com/" style="fill-rule:evenodd;clip-rule:evenodd;stroke-linejoin:round;stroke-miterlimit:2;">
    <g>
        <path d="M266.02,0.25C269.57,0.96 273.08,1.81 276.3,3.57C284.81,8.2 290.19,15.2 292.17,24.7C292.64,26.94 292.15,29.28 292.33,31.55C293.46,45.26 280.75,59.51 266.01,61.04C256.34,62.04 247.99,59.28 240.99,52.57C236.66,48.42 236.55,41.97 240.6,37.66C244.7,33.31 251.32,33.04 255.77,37.05C259.34,40.27 263.86,40.65 267.55,38.04C270.53,35.93 271.94,32.02 271.01,28.41C270.08,24.81 267.09,22.17 263.43,21.76C262.48,21.65 261.52,21.57 260.57,21.57C184.76,21.56 108.95,21.56 33.14,21.56C30.56,21.56 28.08,21.86 25.89,23.41C22.74,25.63 21.36,29.63 22.5,33.35C23.66,37.12 26.97,39.6 30.85,39.71C33.46,39.78 35.64,38.89 37.54,37.15C42.01,33.04 48.78,33.32 52.9,37.75C56.92,42.07 56.64,48.56 52.26,52.79C37.58,66.96 13.1,62.77 3.96,44.53C-2,32.59 0.17,18.54 9.55,9.12C14.37,4.28 20.21,1.36 27,0.43C27.24,0.4 27.48,0.31 27.72,0.25L266.02,0.25Z" style="fill:rgb(40,40,40);fill-rule:nonzero;"/>
        <path d="M136.05,173.3L136.05,105.87C136.05,103.97 136.05,103.97 134.14,103.97L111.66,103.97C109.97,103.97 109.97,103.97 109.97,105.71L109.97,190.87C109.97,197.35 105.1,202.07 98.66,201.85C93.37,201.67 88.74,197.05 88.62,191.76C88.56,188.97 88.59,186.18 88.59,183.39C88.59,153.55 88.61,123.7 88.57,93.86C88.56,89.57 90.22,86.3 93.83,84.01C95.49,82.96 97.33,82.56 99.3,82.56C112.41,82.58 125.53,82.57 138.64,82.57C157,82.57 175.36,82.68 193.71,82.51C199.6,82.45 204.95,87.19 204.93,93.79C204.84,126.17 204.89,158.55 204.88,190.94C204.88,197.28 199.94,202.05 193.6,201.85C188.46,201.69 183.92,197.31 183.51,192.17C183.38,190.59 183.35,189.01 183.35,187.43L183.35,106.02C183.35,103.97 183.35,103.97 181.32,103.97L159.22,103.97C157.44,103.97 157.44,103.97 157.44,105.74L157.44,240.1C157.44,245.59 154.04,249.78 148.72,250.89C142.44,252.2 136.14,247.28 136.09,240.85C136.01,230.36 136.06,219.87 136.06,209.38C136.04,197.35 136.05,185.32 136.05,173.3Z" style="fill:rgb(40,40,40);fill-rule:nonzero;"/>
        <path d="M146.75,41.87C168.48,41.87 190.21,41.86 211.93,41.87C217.21,41.87 221.39,45.14 222.58,50.13C224.17,56.81 219.11,63.25 212.23,63.25C176.23,63.26 140.22,63.25 104.22,63.25L81.37,63.25C75.84,63.25 71.12,59.12 70.64,53.9C70.1,48.02 73.68,43.11 79.33,42.02C80.22,41.85 81.15,41.87 82.07,41.87L146.75,41.87Z" style="fill:rgb(40,40,40);fill-rule:nonzero;"/>
    </g>
</svg>
