<?xml version="1.0" encoding="UTF-8" standalone="no"?>
<!DOCTYPE svg PUBLIC "-//W3C//DTD SVG 1.1//EN" "http://www.w3.org/Graphics/SVG/1.1/DTD/svg11.dtd">
<svg width="100%" height="100%" viewBox="0 0 153 176" version="1.1" xmlns="http://www.w3.org/2000/svg" xmlns:xlink="http://www.w3.org/1999/xlink" xml:space="preserve" xmlns:serif="http://www.serif.com/" style="fill-rule:evenodd;clip-rule:evenodd;stroke-linejoin:round;stroke-miterlimit:2;">
    <path d="M76.38,175.5C72.22,174.41 70.89,172.67 70.89,168.29L70.89,100.39C70.89,98.42 70.89,98.42 68.9,98.42C65.61,98.42 62.33,98.48 59.04,98.39C57.75,98.36 57.43,98.79 57.44,100.03C57.48,114.59 57.47,129.15 57.46,143.72C57.46,147.23 55.01,149.67 51.59,149.61C48.64,149.56 46.24,147.12 46.15,144.04C46.1,142.38 46.14,140.71 46.14,139.05L46.14,93.62C46.14,89.29 48.34,87.09 52.67,87.09L100.72,87.09C104.86,87.09 107.13,89.35 107.13,93.49L107.13,143.79C107.13,146.23 106.03,148.05 103.84,149.09C101.74,150.09 99.69,149.81 97.88,148.34C96.39,147.14 95.8,145.51 95.81,143.61C95.82,129.3 95.82,114.98 95.82,100.67C95.82,100.3 95.8,99.92 95.82,99.55C95.88,98.76 95.56,98.43 94.74,98.43C91,98.45 87.25,98.45 83.51,98.43C82.71,98.43 82.35,98.73 82.39,99.53C82.41,99.94 82.39,100.36 82.39,100.78C82.39,123.37 82.38,145.96 82.4,168.56C82.4,171.4 81.6,173.74 78.81,174.97C78.21,175.23 77.54,175.34 76.9,175.52C76.71,175.5 76.54,175.5 76.38,175.5Z" style="fill:rgb(79,74,70);fill-rule:nonzero;"/>
    <path d="M0.25,57.42C1.02,54.26 2.25,51.34 4.55,48.96C7.72,45.69 11.62,43.95 16.14,43.94C56.45,43.9 96.75,43.9 137.04,43.93C145.26,43.94 152.31,50.35 153.01,58.26C153.76,66.82 148.25,74.28 139.91,75.8C134.65,76.76 130.02,75.29 126.11,71.67C123.69,69.43 123.53,66.17 125.61,63.73C127.54,61.47 131,61.17 133.49,63.14C134.64,64.05 135.79,64.72 137.32,64.65C139.57,64.54 141.45,62.84 141.69,60.61C141.94,58.19 140.51,56.03 138.25,55.52C137.49,55.35 136.69,55.27 135.9,55.27C96.38,55.26 56.87,55.26 17.3,55.26C16.25,55.26 15.22,55.34 14.25,55.78C12.5,56.57 11.52,57.94 11.46,59.87C11.4,61.79 12.2,63.28 13.94,64.14C15.63,64.98 17.36,64.92 18.88,63.74C20.22,62.7 21.56,61.79 23.36,61.84C25.64,61.91 27.79,63.25 28.55,65.31C29.38,67.56 29.07,69.64 27.34,71.42C21.76,77.18 12.25,77.62 5.98,72.45C2.86,69.87 1.09,66.53 0.17,62.66C0.18,60.91 0.18,59.17 0.18,57.42L0.25,57.42Z" style="fill:rgb(79,74,70);fill-rule:nonzero;"/>
    <path d="M76.75,65.82C88.02,65.82 99.29,65.81 110.56,65.82C113.31,65.82 115.37,67.2 116.18,69.53C117.45,73.15 115.02,76.81 111.13,77.14C110.8,77.17 110.47,77.16 110.13,77.16C87.8,77.16 65.47,77.16 43.14,77.17C41.12,77.17 39.33,76.67 38.04,75.05C36.6,73.24 36.27,71.22 37.28,69.09C38.31,66.93 40.04,65.82 42.44,65.82C52.05,65.81 61.65,65.81 71.26,65.81C73.09,65.82 74.92,65.82 76.75,65.82Z" style="fill:rgb(79,74,70);fill-rule:nonzero;"/>
    <path d="M3.68,16.8C3.68,12.68 3.67,8.57 3.68,4.45C3.69,1.7 4.78,0.52 7.52,0.5C15.67,0.46 23.82,0.46 31.97,0.5C34.66,0.51 35.93,1.74 35.94,4.41C36,12.69 35.98,20.96 35.94,29.24C35.93,31.15 34.95,32.35 33.44,32.67C31.76,33.03 30.22,32.05 29.91,30.34C29.76,29.53 29.71,28.69 29.71,27.86C29.7,21.3 29.71,14.73 29.7,8.16C29.7,6.57 29.66,6.54 28.11,6.53C26.74,6.53 25.36,6.6 24,6.52C22.85,6.45 22.49,6.84 22.5,8C22.55,15.11 22.53,22.22 22.53,29.33C22.53,31.23 21.77,32.27 20.15,32.63C18.55,32.99 17.02,32.05 16.65,30.43C16.53,29.91 16.5,29.36 16.5,28.82C16.48,21.92 16.48,15.01 16.47,8.11C16.47,6.54 16.44,6.52 14.85,6.52C13.48,6.52 12.11,6.55 10.73,6.52C9.98,6.51 9.57,6.72 9.58,7.57C9.62,14.8 9.61,22.04 9.68,29.27C9.7,31.21 8.55,32.66 6.72,32.71C4.93,32.76 3.7,31.46 3.7,29.51C3.68,25.29 3.68,21.04 3.68,16.8Z" style="fill:rgb(79,74,70);fill-rule:nonzero;"/>
    <path d="M108,32.98L95.91,32.98C95.15,32.98 94.41,32.91 93.71,32.62C92.28,32.02 91.59,30.66 92,29.17C92.16,28.61 92.39,28.07 92.65,27.56C96.86,19.21 101.09,10.87 105.29,2.52C105.92,1.28 106.74,0.4 108.24,0.43C109.69,0.45 110.47,1.32 111.06,2.52C115.26,10.97 119.49,19.4 123.69,27.85C125.15,30.78 123.89,32.9 120.59,32.96C116.39,33.03 112.2,32.98 108,32.98ZM108.05,26.65C110.46,26.65 112.87,26.64 115.29,26.66C115.98,26.66 116.22,26.49 115.87,25.79C113.46,21 111.07,16.2 108.67,11.4C108.55,11.15 108.48,10.78 108.14,10.77C107.79,10.76 107.73,11.14 107.61,11.39C105.21,16.09 102.83,20.81 100.41,25.5C99.88,26.53 100.24,26.68 101.2,26.67C103.48,26.62 105.77,26.65 108.05,26.65Z" style="fill:rgb(79,74,70);fill-rule:nonzero;"/>
    <path d="M63.12,16.59L63.12,3.99C63.12,2.62 63.47,1.43 64.8,0.76C65.86,0.23 66.89,0.36 67.87,1.01C74.41,5.37 80.96,9.71 87.48,14.09C89.62,15.53 89.52,17.84 87.25,19.39C83.23,22.13 79.17,24.81 75.12,27.51C72.8,29.06 70.51,30.63 68.16,32.13C65.54,33.8 63.19,32.55 63.14,29.43C63.08,25.15 63.12,20.87 63.12,16.59ZM69.45,9.3C69.45,14.14 69.44,18.65 69.46,23.16C69.46,23.96 69.93,23.64 70.28,23.4C73.39,21.34 76.5,19.26 79.61,17.2C80.13,16.85 80.35,16.55 79.68,16.11C76.36,13.93 73.06,11.71 69.45,9.3Z" style="fill:rgb(79,74,70);fill-rule:nonzero;"/>
    <path d="M145.4,0.95C146.66,0.94 147.55,1.54 148.09,2.64C148.62,3.72 148.37,5.09 147.49,5.98C146.63,6.86 145.48,7.3 144.45,7.92C142.81,8.9 141.15,9.85 139.46,10.76C138.68,11.18 138.5,11.48 139.24,12.19C142.32,15.16 145.37,18.17 148.4,21.21C150.25,23.07 150.03,25.16 147.76,26.49C143.99,28.7 140.18,30.82 136.35,32.92C134.57,33.9 132.96,33.45 132.04,31.88C131.15,30.36 131.64,28.74 133.42,27.68C135.74,26.3 138.1,24.98 140.47,23.68C141.35,23.2 141.5,22.82 140.71,22.05C137.73,19.15 134.8,16.2 131.87,13.25C129.69,11.06 129.96,9.19 132.65,7.66C136.19,5.64 139.74,3.63 143.28,1.61C143.95,1.24 144.63,0.97 145.4,0.95Z" style="fill:rgb(79,74,70);fill-rule:nonzero;"/>
    <path d="M46.78,16.73L46.78,3.88C46.78,2.03 47.86,0.79 49.57,0.68C51.44,0.56 52.65,1.57 52.9,3.46C52.94,3.75 52.93,4.04 52.93,4.33C52.93,12.44 52.93,20.55 52.92,28.66C52.92,29.16 52.91,29.66 52.81,30.15C52.47,31.79 51.14,32.83 49.61,32.7C47.93,32.56 46.86,31.4 46.85,29.59C46.83,25.31 46.84,21.02 46.84,16.74C46.82,16.73 46.8,16.73 46.78,16.73Z" style="fill:rgb(79,74,70);fill-rule:nonzero;"/>
</svg>
