<?xml version="1.0" encoding="utf-8"?>
<!-- Generator: Adobe Illustrator 26.3.1, SVG Export Plug-In . SVG Version: 6.00 Build 0)  -->
<svg version="1.1" id="Layer_1" xmlns="http://www.w3.org/2000/svg" xmlns:xlink="http://www.w3.org/1999/xlink" x="0px" y="0px"
	 viewBox="0 0 153 175.25" style="enable-background:new 0 0 153 175.25;" xml:space="preserve">
<style type="text/css">
	.st0{fill:#BCAC83;}
</style>
<g>
	<path class="st0" d="M76.38,175.5c-4.16-1.09-5.49-2.83-5.49-7.21c0-22.63,0-45.27,0-67.9c0-1.97,0-1.97-1.99-1.97
		c-3.29,0-6.57,0.06-9.86-0.03c-1.29-0.03-1.61,0.4-1.6,1.64c0.04,14.56,0.03,29.12,0.02,43.69c0,3.51-2.45,5.95-5.87,5.89
		c-2.95-0.05-5.35-2.49-5.44-5.57c-0.05-1.66-0.01-3.33-0.01-4.99c0-15.14,0-30.29,0-45.43c0-4.33,2.2-6.53,6.53-6.53
		c16.02,0,32.03,0,48.05,0c4.14,0,6.41,2.26,6.41,6.4c0,16.77,0,33.53,0,50.3c0,2.44-1.1,4.26-3.29,5.3c-2.1,1-4.15,0.72-5.96-0.75
		c-1.49-1.2-2.08-2.83-2.07-4.73c0.01-14.31,0.01-28.63,0.01-42.94c0-0.37-0.02-0.75,0-1.12c0.06-0.79-0.26-1.12-1.08-1.12
		c-3.74,0.02-7.49,0.02-11.23,0c-0.8,0-1.16,0.3-1.12,1.1c0.02,0.41,0,0.83,0,1.25c0,22.59-0.01,45.18,0.01,67.78
		c0,2.84-0.8,5.18-3.59,6.41c-0.6,0.26-1.27,0.37-1.91,0.55C76.71,175.5,76.54,175.5,76.38,175.5z"/>
	<path class="st0" d="M0.25,57.42c0.77-3.16,2-6.08,4.3-8.46c3.17-3.27,7.07-5.01,11.59-5.02c40.31-0.04,80.61-0.04,120.92-0.01
		c8.22,0.01,15.27,6.42,15.97,14.33c0.75,8.56-4.76,16.02-13.1,17.54c-5.26,0.96-9.89-0.51-13.8-4.13c-2.42-2.24-2.58-5.5-0.5-7.94
		c1.93-2.26,5.39-2.56,7.88-0.59c1.15,0.91,2.3,1.58,3.83,1.51c2.25-0.11,4.13-1.81,4.37-4.04c0.25-2.42-1.18-4.58-3.44-5.09
		c-0.76-0.17-1.56-0.25-2.35-0.25c-39.52-0.01-79.03-0.01-118.55-0.01c-1.05,0-2.08,0.08-3.05,0.52c-1.75,0.79-2.73,2.16-2.79,4.09
		c-0.06,1.92,0.74,3.41,2.48,4.27c1.69,0.84,3.42,0.78,4.94-0.4c1.34-1.04,2.68-1.95,4.48-1.9c2.28,0.07,4.43,1.41,5.19,3.47
		c0.83,2.25,0.52,4.33-1.21,6.11c-5.58,5.76-15.09,6.2-21.36,1.03c-3.12-2.58-4.89-5.92-5.81-9.79C0.25,60.91,0.25,59.17,0.25,57.42
		z"/>
	<path class="st0" d="M76.75,65.82c11.27,0,22.54-0.01,33.81,0c2.75,0,4.81,1.38,5.62,3.71c1.27,3.62-1.16,7.28-5.05,7.61
		c-0.33,0.03-0.66,0.02-1,0.02c-22.33,0-44.66,0-66.99,0.01c-2.02,0-3.81-0.5-5.1-2.12c-1.44-1.81-1.77-3.83-0.76-5.96
		c1.03-2.16,2.76-3.27,5.16-3.27c9.61-0.01,19.21-0.01,28.82-0.01C73.09,65.82,74.92,65.82,76.75,65.82z"/>
	<path class="st0" d="M3.68,16.8c0-4.12-0.01-8.23,0-12.35C3.69,1.7,4.78,0.52,7.52,0.5c8.15-0.04,16.3-0.04,24.45,0
		c2.69,0.01,3.96,1.24,3.97,3.91c0.06,8.28,0.04,16.55,0,24.83c-0.01,1.91-0.99,3.11-2.5,3.43c-1.68,0.36-3.22-0.62-3.53-2.33
		c-0.15-0.81-0.2-1.65-0.2-2.48C29.7,21.3,29.71,14.73,29.7,8.16c0-1.59-0.04-1.62-1.59-1.63c-1.37,0-2.75,0.07-4.11-0.01
		c-1.15-0.07-1.51,0.32-1.5,1.48c0.05,7.11,0.03,14.22,0.03,21.33c0,1.9-0.76,2.94-2.38,3.3c-1.6,0.36-3.13-0.58-3.5-2.2
		c-0.12-0.52-0.15-1.07-0.15-1.61c-0.02-6.9-0.02-13.81-0.03-20.71c0-1.57-0.03-1.59-1.62-1.59c-1.37,0-2.74,0.03-4.12,0
		c-0.75-0.01-1.16,0.2-1.15,1.05c0.04,7.23,0.03,14.47,0.1,21.7c0.02,1.94-1.13,3.39-2.96,3.44c-1.79,0.05-3.02-1.25-3.02-3.2
		C3.68,25.29,3.68,21.04,3.68,16.8C3.68,16.8,3.68,16.8,3.68,16.8z"/>
	<path class="st0" d="M107.97,32.98c-4.03,0-8.06,0-12.09,0c-0.76,0-1.5-0.07-2.2-0.36c-1.43-0.6-2.12-1.96-1.71-3.45
		c0.16-0.56,0.39-1.1,0.65-1.61c4.21-8.35,8.44-16.69,12.64-25.04c0.63-1.24,1.45-2.12,2.95-2.09c1.45,0.02,2.23,0.89,2.82,2.09
		c4.2,8.45,8.43,16.88,12.63,25.33c1.46,2.93,0.2,5.05-3.1,5.11C116.36,33.03,112.17,32.98,107.97,32.98
		C107.97,32.98,107.97,32.98,107.97,32.98z M108.02,26.65c2.41,0,4.82-0.01,7.24,0.01c0.69,0,0.93-0.17,0.58-0.87
		c-2.41-4.79-4.8-9.59-7.2-14.39c-0.12-0.25-0.19-0.62-0.53-0.63c-0.35-0.01-0.41,0.37-0.53,0.62c-2.4,4.7-4.78,9.42-7.2,14.11
		c-0.53,1.03-0.17,1.18,0.79,1.17C103.45,26.62,105.74,26.65,108.02,26.65z"/>
	<path class="st0" d="M63.12,16.59c0-4.2,0-8.4,0-12.6c0-1.37,0.35-2.56,1.68-3.23c1.06-0.53,2.09-0.4,3.07,0.25
		c6.54,4.36,13.09,8.7,19.61,13.08c2.14,1.44,2.04,3.75-0.23,5.3c-4.02,2.74-8.08,5.42-12.13,8.12c-2.32,1.55-4.61,3.12-6.96,4.62
		c-2.62,1.67-4.97,0.42-5.02-2.7C63.08,25.15,63.12,20.87,63.12,16.59z M69.45,9.3c0,4.84-0.01,9.35,0.01,13.86
		c0,0.8,0.47,0.48,0.82,0.24c3.11-2.06,6.22-4.14,9.33-6.2c0.52-0.35,0.74-0.65,0.07-1.09C76.36,13.93,73.06,11.71,69.45,9.3z"/>
	<path class="st0" d="M145.4,0.95c1.26-0.01,2.15,0.59,2.69,1.69c0.53,1.08,0.28,2.45-0.6,3.34c-0.86,0.88-2.01,1.32-3.04,1.94
		c-1.64,0.98-3.3,1.93-4.99,2.84c-0.78,0.42-0.96,0.72-0.22,1.43c3.08,2.97,6.13,5.98,9.16,9.02c1.85,1.86,1.63,3.95-0.64,5.28
		c-3.77,2.21-7.58,4.33-11.41,6.43c-1.78,0.98-3.39,0.53-4.31-1.04c-0.89-1.52-0.4-3.14,1.38-4.2c2.32-1.38,4.68-2.7,7.05-4
		c0.88-0.48,1.03-0.86,0.24-1.63c-2.98-2.9-5.91-5.85-8.84-8.8c-2.18-2.19-1.91-4.06,0.78-5.59c3.54-2.02,7.09-4.03,10.63-6.05
		C143.95,1.24,144.63,0.97,145.4,0.95z"/>
	<path class="st0" d="M46.78,16.73c0-4.28,0-8.57,0-12.85c0-1.85,1.08-3.09,2.79-3.2c1.87-0.12,3.08,0.89,3.33,2.78
		c0.04,0.29,0.03,0.58,0.03,0.87c0,8.11,0,16.22-0.01,24.33c0,0.5-0.01,1-0.11,1.49c-0.34,1.64-1.67,2.68-3.2,2.55
		c-1.68-0.14-2.75-1.3-2.76-3.11c-0.02-4.28-0.01-8.57-0.01-12.85C46.82,16.73,46.8,16.73,46.78,16.73z"/>
</g>
</svg>
