<?xml version="1.0" encoding="UTF-8" standalone="no"?>
<!DOCTYPE svg PUBLIC "-//W3C//DTD SVG 1.1//EN" "http://www.w3.org/Graphics/SVG/1.1/DTD/svg11.dtd">
<svg width="100%" height="100%" viewBox="0 0 142 142" version="1.1" xmlns="http://www.w3.org/2000/svg" xmlns:xlink="http://www.w3.org/1999/xlink" xml:space="preserve" xmlns:serif="http://www.serif.com/" style="fill-rule:evenodd;clip-rule:evenodd;stroke-linejoin:round;stroke-miterlimit:2;">
    <g transform="matrix(4.02299,0,0,4.02299,-49.8607,-234.345)">
        <path d="M21.6,80.7C18.63,89.83 25.19,93.3 29.99,93.3L30.08,93.3C34.89,93.3 41.48,89.87 38.47,80.7C35.5,71.55 30.03,58.5 30.03,58.5C30.03,58.5 24.57,71.5 21.6,80.7Z" style="fill:url(#_Linear1);fill-rule:nonzero;"/>
        <path d="M21.6,80.7C18.63,89.83 25.19,93.3 29.99,93.3L30.08,93.3C34.89,93.3 41.48,89.87 38.47,80.7C35.5,71.55 30.03,58.5 30.03,58.5C30.03,58.5 24.57,71.5 21.6,80.7Z" style="fill:url(#_Linear2);fill-rule:nonzero;"/>
    </g>
    <defs>
        <linearGradient id="_Linear1" x1="0" y1="0" x2="1" y2="0" gradientUnits="userSpaceOnUse" gradientTransform="matrix(-0.511,-35.8,35.8,-0.511,2124.5,66.6065)"><stop offset="0" style="stop-color:rgb(234,198,135);stop-opacity:1"/><stop offset="1" style="stop-color:rgb(234,198,135);stop-opacity:0"/></linearGradient>
        <linearGradient id="_Linear2" x1="0" y1="0" x2="1" y2="0" gradientUnits="userSpaceOnUse" gradientTransform="matrix(2.12476e-15,-34.7,34.7,2.12476e-15,2059.95,93.3)"><stop offset="0" style="stop-color:rgb(234,198,135);stop-opacity:1"/><stop offset="0" style="stop-color:rgb(194,180,135);stop-opacity:1"/><stop offset="0.18" style="stop-color:rgb(194,180,135);stop-opacity:0.69"/><stop offset="0.3" style="stop-color:rgb(194,180,135);stop-opacity:0.6"/><stop offset="1" style="stop-color:rgb(194,180,135);stop-opacity:0.1"/></linearGradient>
    </defs>
</svg>
